<svg width="17" height="15" viewBox="0 0 17 15" fill="none" xmlns="http://www.w3.org/2000/svg">
<path d="M7.53758 0.953076C8.03668 0.348975 8.96256 0.348975 9.46165 0.953076L10.2104 1.85935C10.4745 2.17894 10.88 2.34654 11.2926 2.30662L12.4645 2.19326C13.2464 2.11762 13.9029 2.7746 13.8266 3.55646L13.714 4.71174C13.6736 5.12636 13.8427 5.53382 14.1649 5.79792L15.0639 6.53493C15.673 7.03415 15.673 7.96583 15.0639 8.46505L14.1649 9.20207C13.8427 9.46618 13.6736 9.87362 13.714 10.2882L13.8266 11.4435C13.9029 12.2254 13.2464 12.8824 12.4645 12.8067L11.2926 12.6934C10.88 12.6534 10.4745 12.821 10.2104 13.1406L9.46165 14.0469C8.96256 14.651 8.03668 14.651 7.53758 14.0469L6.78883 13.1406C6.52479 12.821 6.11927 12.6534 5.70664 12.6934L4.53478 12.8067C3.75286 12.8824 3.09638 12.2254 3.17261 11.4435L3.28524 10.2882C3.32567 9.87362 3.15653 9.46618 2.83435 9.20207L1.9353 8.46505C1.32625 7.96583 1.32625 7.03415 1.9353 6.53493L2.83435 5.79792C3.15653 5.53382 3.32567 5.12636 3.28524 4.71174L3.17261 3.55646C3.09638 2.7746 3.75286 2.11762 4.53478 2.19326L5.70664 2.30662C6.11927 2.34654 6.52479 2.17894 6.78883 1.85935L7.53758 0.953076Z" stroke="#222222"/>
<path d="M6.08008 7.98206L7.50775 9.4041C7.77611 9.6714 8.21874 9.63996 8.44654 9.33734L10.9186 6.0542" stroke="#222222" stroke-linecap="round"/>
</svg>
