<svg width="86" height="22" viewBox="0 0 86 22" fill="none" xmlns="http://www.w3.org/2000/svg">
<g clip-path="url(#clip0_1_145)">
<mask id="mask0_1_145" style="mask-type:luminance" maskUnits="userSpaceOnUse" x="0" y="0" width="86" height="22">
<path d="M86 0H0V22H86V0Z" fill="white"/>
</mask>
<g mask="url(#mask0_1_145)">
<path d="M32.8736 0.517578L25.4541 20.0142H29.4414L30.9812 15.9422H38.8587L40.3912 20.0142H44.3482L36.9562 0.517578H32.8736ZM32.3323 12.364L34.9282 5.50343L37.5095 12.364H32.3323Z" fill="black"/>
<path d="M78.9434 6.07031C77.5481 6.07031 76.1844 6.48634 75.0245 7.26584C73.8646 8.04528 72.9608 9.15321 72.4272 10.4494C71.893 11.7456 71.7537 13.1719 72.0254 14.5479C72.2977 15.9239 72.9695 17.188 73.9561 18.18C74.9422 19.1721 76.1988 19.8477 77.5671 20.1214C78.9354 20.3951 80.3537 20.2546 81.6426 19.7177C82.9309 19.1808 84.0326 18.2716 84.8074 17.105C85.5828 15.9385 85.9961 14.567 85.9961 13.164C85.9961 11.2826 85.253 9.47834 83.9307 8.14804C82.6079 6.81768 80.8137 6.07031 78.9434 6.07031ZM78.9434 16.6206C78.2636 16.6206 77.5993 16.4179 77.0346 16.0382C76.4693 15.6585 76.029 15.1188 75.7688 14.4873C75.5086 13.8559 75.4407 13.1611 75.5737 12.4908C75.706 11.8205 76.033 11.2047 76.5137 10.7215C76.9943 10.2382 77.6062 9.90902 78.2728 9.77569C78.9394 9.64236 79.6302 9.71079 80.2582 9.97236C80.8856 10.2339 81.4227 10.6768 81.8003 11.2451C82.1774 11.8134 82.3788 12.4815 82.3788 13.165C82.38 13.6189 82.2913 14.0686 82.1192 14.4882C81.9465 14.9078 81.6938 15.289 81.3743 15.61C81.0554 15.9311 80.6761 16.1856 80.2588 16.359C79.842 16.5324 79.3947 16.6213 78.9434 16.6206Z" fill="black"/>
<path d="M49.0995 14.9854L45.8789 6.31641H42.0757L47.2593 20.0137H51.0322L56.1233 6.31641H52.3201L49.0995 14.9854Z" fill="black"/>
<path d="M68.0852 2.67676H64.4661V6.31666H62.3501V9.58713H64.4661V15.4178C64.4661 18.7186 66.2759 20.1373 68.8214 20.1373C69.6848 20.1499 70.5414 19.9817 71.3369 19.6436V16.2506C70.904 16.4111 70.4476 16.4961 69.9865 16.5021C68.8876 16.5021 68.0852 16.07 68.0852 14.5895V9.58713H71.3369V6.31666H68.0852V2.67676Z" fill="black"/>
<path d="M59.0981 5.32988C60.555 5.32988 61.7362 4.142 61.7362 2.67666C61.7362 1.21132 60.555 0.0234375 59.0981 0.0234375C57.6412 0.0234375 56.46 1.21132 56.46 2.67666C56.46 4.142 57.6412 5.32988 59.0981 5.32988Z" fill="black"/>
<path d="M60.908 6.31641H57.2891V20.0137H60.908V6.31641Z" fill="black"/>
<path d="M7.07836 21.9576C10.9747 21.9576 14.1333 18.7808 14.1333 14.8621C14.1333 10.9433 10.9747 7.7666 7.07836 7.7666C3.18204 7.7666 0.0234375 10.9433 0.0234375 14.8621C0.0234375 18.7808 3.18204 21.9576 7.07836 21.9576Z" fill="#04E061"/>
<path d="M19.3168 21.0624C21.6712 21.0624 23.5797 19.1428 23.5797 16.7748C23.5797 14.4069 21.6712 12.4873 19.3168 12.4873C16.9623 12.4873 15.0537 14.4069 15.0537 16.7748C15.0537 19.1428 16.9623 21.0624 19.3168 21.0624Z" fill="#FF4053"/>
<path d="M8.42758 6.8416C9.88457 6.8416 11.0657 5.65371 11.0657 4.18838C11.0657 2.72305 9.88457 1.53516 8.42758 1.53516C6.97064 1.53516 5.78955 2.72305 5.78955 4.18838C5.78955 5.65371 6.97064 6.8416 8.42758 6.8416Z" fill="#965EEB"/>
<path d="M17.6607 11.5613C20.8286 11.5613 23.3967 8.97844 23.3967 5.79237C23.3967 2.60627 20.8286 0.0234375 17.6607 0.0234375C14.4928 0.0234375 11.9248 2.60627 11.9248 5.79237C11.9248 8.97844 14.4928 11.5613 17.6607 11.5613Z" fill="#00AAFF"/>
</g>
</g>
<defs>
<clipPath id="clip0_1_145">
<rect width="86" height="22" fill="white"/>
</clipPath>
</defs>
</svg>
