<svg width="18" height="18" viewBox="0 0 18 18" fill="none" xmlns="http://www.w3.org/2000/svg">
<path d="M1.83757 11.8332V1.83317H0.170898V0.166504H2.6709C3.13114 0.166504 3.50423 0.539604 3.50423 0.999837V10.9998H13.8696L15.5362 4.33317H5.1709V2.6665H16.6036C17.0638 2.6665 17.4369 3.0396 17.4369 3.49984C17.4369 3.56797 17.4286 3.63585 17.412 3.70195L15.3287 12.0353C15.236 12.4063 14.9027 12.6665 14.5202 12.6665H2.6709C2.21066 12.6665 1.83757 12.2934 1.83757 11.8332ZM3.50423 17.6665C2.58376 17.6665 1.83757 16.9203 1.83757 15.9998C1.83757 15.0793 2.58376 14.3332 3.50423 14.3332C4.42471 14.3332 5.1709 15.0793 5.1709 15.9998C5.1709 16.9203 4.42471 17.6665 3.50423 17.6665ZM13.5042 17.6665C12.5837 17.6665 11.8376 16.9203 11.8376 15.9998C11.8376 15.0793 12.5837 14.3332 13.5042 14.3332C14.4247 14.3332 15.1709 15.0793 15.1709 15.9998C15.1709 16.9203 14.4247 17.6665 13.5042 17.6665Z" fill="currentColor"/>
</svg>
