<svg width="15" height="15" viewBox="0 0 15 15" fill="none" xmlns="http://www.w3.org/2000/svg">
<path d="M9.36667 14.0333H8.9C8.9 14.2101 8.99987 14.3717 9.15796 14.4507C9.31607 14.5298 9.50526 14.5127 9.64667 14.4067L9.36667 14.0333ZM11.2333 12.6333L11.5133 12.26C11.3474 12.1356 11.1193 12.1356 10.9533 12.26L11.2333 12.6333ZM13.1 14.0333L12.82 14.4067C12.9614 14.5127 13.1506 14.5298 13.3087 14.4507C13.4668 14.3717 13.5667 14.2101 13.5667 14.0333H13.1ZM11.2333 10.7667C9.94468 10.7667 8.9 9.722 8.9 8.43333H7.96667C7.96667 10.2375 9.4292 11.7 11.2333 11.7V10.7667ZM13.5667 8.43333C13.5667 9.722 12.522 10.7667 11.2333 10.7667V11.7C13.0375 11.7 14.5 10.2375 14.5 8.43333H13.5667ZM11.2333 6.1C12.522 6.1 13.5667 7.14467 13.5667 8.43333H14.5C14.5 6.6292 13.0375 5.16667 11.2333 5.16667V6.1ZM11.2333 5.16667C9.4292 5.16667 7.96667 6.6292 7.96667 8.43333H8.9C8.9 7.14467 9.94468 6.1 11.2333 6.1V5.16667ZM8.9 10.3V14.0333H9.83333V10.3H8.9ZM9.64667 14.4067L11.5133 13.0067L10.9533 12.26L9.08667 13.66L9.64667 14.4067ZM10.9533 13.0067L12.82 14.4067L13.38 13.66L11.5133 12.26L10.9533 13.0067ZM13.5667 14.0333V10.3H12.6333V14.0333H13.5667ZM14.5 5.16667V1.9H13.5667V5.16667H14.5ZM13.1 0.5H1.9V1.43333H13.1V0.5ZM0.5 1.9V13.1H1.43333V1.9H0.5ZM1.9 14.5H7.96667V13.5667H1.9V14.5ZM0.5 13.1C0.5 13.8732 1.1268 14.5 1.9 14.5V13.5667C1.64227 13.5667 1.43333 13.3577 1.43333 13.1H0.5ZM1.9 0.5C1.1268 0.5 0.5 1.1268 0.5 1.9H1.43333C1.43333 1.64227 1.64227 1.43333 1.9 1.43333V0.5ZM14.5 1.9C14.5 1.1268 13.8732 0.5 13.1 0.5V1.43333C13.3577 1.43333 13.5667 1.64227 13.5667 1.9H14.5ZM3.3 5.16667H7.96667V4.23333H3.3V5.16667ZM3.3 7.96667H6.1V7.03333H3.3V7.96667Z" fill="#222222"/>
</svg>
