<svg width="15" height="15" viewBox="0 0 15 15" fill="none" xmlns="http://www.w3.org/2000/svg">
<path fill-rule="evenodd" clip-rule="evenodd" d="M2.68068 1.34136C2.68068 0.876692 3.05737 0.5 3.52204 0.5H11.4779C11.94 0.5 12.3193 0.872433 12.3193 1.3397V1.34633V1.35298V1.35963V1.36629V1.37297V1.37964V1.38632V1.39302V1.39972V1.40642V1.41313V1.41985V1.42658V1.43332V1.44006V1.44681V1.45356V1.46033V1.4671V1.47388V1.48067V1.48746V1.49426V1.50107V1.50788V1.51471V1.52153V1.52837V1.53521V1.54206V1.54892V1.55578V1.56265V1.56953V1.57642V1.58331V1.59021V1.59712V1.60402V1.61095V1.61787V1.62481V1.63174V1.63869V1.64564V1.65261V1.65957V1.66655V1.67353V1.68051V1.68751V1.69451V1.70151V1.70853V1.71555V1.72258V1.72961V1.73665V1.7437V1.75075V1.75781V1.76487V1.77195V1.77902V1.78611V1.7932V1.8003V1.8074V1.81451V1.82163V1.82876V1.83589V1.84302V1.85016V1.85731V1.86446V1.87163V1.87879V1.88597V1.89314V1.90033V1.90752V1.91472V1.92192V1.92913V1.93635V1.94356V1.95079V1.9538H12.5882C13.6441 1.9538 14.5 2.80971 14.5 3.86553V4.81557C14.5 5.55244 14.0765 6.22371 13.4114 6.541L12.0585 7.18644C12.0159 7.20678 11.9717 7.21993 11.9273 7.22641C11.2459 8.80619 9.7437 9.94882 7.95798 10.1171V11.4034H9.19613C9.60971 11.4034 10.0122 11.5376 10.3431 11.7858L11.1185 12.3673C12.0294 13.0505 11.5462 14.5 10.4076 14.5H4.59243C3.45379 14.5 2.9706 13.0505 3.88152 12.3673L4.65687 11.7858C4.98779 11.5376 5.39028 11.4034 5.80392 11.4034H7.04209V10.1171C5.25634 9.94882 3.75415 8.80619 3.07274 7.22641C3.02831 7.21993 2.98409 7.20678 2.94144 7.18644L1.58857 6.541C0.9235 6.22371 0.5 5.55244 0.5 4.81557V3.86553C0.5 2.80971 1.35591 1.9538 2.41173 1.9538H2.68068V1.34136ZM11.4034 5.31946C11.4034 7.47475 9.65662 9.22193 7.50147 9.22272H7.49997C5.3442 9.22272 3.59657 7.47514 3.59657 5.31932V1.41589H11.4034V1.41985V1.42658V1.43332V1.44006V1.44681V1.45356V1.46033V1.4671V1.47388V1.48067V1.48746V1.49426V1.50107V1.50788V1.51471V1.52153V1.52837V1.53521V1.54206V1.54892V1.55578V1.56265V1.56953V1.57642V1.58331V1.59021V1.59712V1.60402V1.61095V1.61787V1.62481V1.63174V1.63869V1.64564V1.65261V1.65957V1.66655V1.67353V1.68051V1.68751V1.69451V1.70151V1.70853V1.71555V1.72258V1.72961V1.73665V1.7437V1.75075V1.75781V1.76487V1.77195V1.77902V1.78611V1.7932V1.8003V1.8074V1.81451V1.82163V1.82876V1.83589V1.84302V1.85016V1.85731V1.86446V1.87163V1.87879V1.88597V1.89314V1.90033V1.90752V1.91472V1.92192V1.92913V1.93635V1.94356V1.95079V1.95803V1.96526V1.97251V1.97976V1.98702V1.99428V2.00155V2.00883V2.01611V2.02339V2.03068V2.03798V2.04529V2.05259V2.05991V2.06723V2.07456V2.08189V2.08923V2.09657V2.10392V2.11127V2.11863V2.126V2.13337V2.14075V2.14813V2.15551V2.16291V2.1703V2.17771V2.18512V2.19253V2.19995V2.20738V2.21481V2.22224V2.22969V2.23713V2.24458V2.25204V2.2595V2.26697V2.27444V2.28192V2.2894V2.29689V2.30438V2.31188V2.31938V2.32689V2.33441V2.34192V2.34945V2.35698V2.36451V2.37204V2.37958V2.38713V2.39469V2.40225V2.40981V2.41737V2.42495V2.43252V2.44011V2.44769V2.45528V2.46288V2.47048V2.47808V2.48569V2.49331V2.50093V2.50855V2.51618V2.52381V2.53145V2.53909V2.54673V2.55439V2.56204V2.5697V2.57737V2.58504V2.59271V2.60039V2.60807V2.61575V2.62345V2.63114V2.63884V2.64655V2.65425V2.66197V2.66968V2.6774V2.68513V2.69285V2.70058V2.70832V2.71606V2.72381V2.73156V2.73931V2.74707V2.75483V2.7626V2.77037V2.77814V2.78592V2.7937V2.80148V2.80927V2.81707V2.82486V2.83266V2.84047V2.84828V2.85609V2.8639V2.87172V2.87954V2.88737V2.8952V2.90303V2.91087V2.91872V2.92656V2.93441V2.94226V2.95012V2.95797V2.96584V2.97371V2.98158V2.98945V2.99733V3.00521V3.01309V3.02098V3.02887V3.03676V3.04466V3.05256V3.06046V3.06837V3.07628V3.0842V3.09211V3.10004V3.10796V3.11588V3.12381V3.13174V3.13968V3.14762V3.15556V3.16351V3.17146V3.1794V3.18736V3.19531V3.20328V3.21124V3.21921V3.22717V3.23515V3.24312V3.2511V3.25908V3.26706V3.27505V3.28304V3.29103V3.29903V3.30702V3.31502V3.32302V3.33103V3.33904V3.34705V3.35506V3.36308V3.37109V3.37911V3.38714V3.39517V3.40319V3.41123V3.41926V3.42729V3.43534V3.44338V3.45142V3.45946V3.46751V3.47556V3.48362V3.49167V3.49972V3.50778V3.51585V3.52391V3.53197V3.54005V3.54811V3.55619V3.56427V3.57234V3.58042V3.5885V3.59658V3.60467V3.61276V3.62085V3.62894V3.63703V3.64513V3.65322V3.66132V3.66942V3.67753V3.68563V3.69374V3.70185V3.70996V3.71807V3.72619V3.7343V3.74242V3.75054V3.75866V3.76678V3.77491V3.78303V3.79116V3.79929V3.80742V3.81555V3.82369V3.83182V3.83996V3.8481V3.85624V3.86438V3.87252V3.88067V3.88882V3.89696V3.90511V3.91326V3.92141V3.92956V3.93772V3.94587V3.95403V3.96219V3.97034V3.97851V3.98667V3.99483V4.003V4.01116V4.01933V4.0275V4.03566V4.04383V4.052V4.06017V4.06834V4.07652V4.08469V4.09286V4.10104V4.10922V4.1174V4.12557V4.13376V4.14194V4.15012V4.1583V4.16648V4.17467V4.18285V4.19104V4.19922V4.20741V4.2156V4.22378V4.23197V4.24016V4.24836V4.25655V4.26474V4.27293V4.28112V4.28932V4.29751V4.3057V4.31389V4.32208V4.33028V4.33848V4.34668V4.35487V4.36306V4.37126V4.37946V4.38766V4.39586V4.40406V4.41225V4.42045V4.42865V4.43685V4.44505V4.45325V4.46144V4.46965V4.47784V4.48604V4.49425V4.50244V4.51065V4.51884V4.52704V4.53524V4.54344V4.55164V4.55984V4.56804V4.57624V4.58444V4.59264V4.60084V4.60903V4.61724V4.62543V4.63363V4.64183V4.65002V4.65822V4.66642V4.67462V4.68281V4.691V4.6992V4.70739V4.71559V4.72378V4.73198V4.74017V4.74836V4.75656V4.76475V4.77294V4.78113V4.78931V4.7975V4.80569V4.81388V4.82207V4.83025V4.83844V4.84662V4.8548V4.86299V4.87117V4.87936V4.88753V4.89572V4.9039V4.91207V4.92025V4.92843V4.9366V4.94478V4.95295V4.96112V4.9693V4.97746V4.98563V4.9938V5.00197V5.01014V5.0183V5.02647V5.03463V5.04279V5.05095V5.05911V5.06726V5.07542V5.08358V5.09173V5.09989V5.10804V5.11619V5.12434V5.13249V5.14063V5.14878V5.15692V5.16506V5.17321V5.18134V5.18948V5.19761V5.20575V5.21388V5.22202V5.23014V5.23827V5.2464V5.25452V5.26264V5.27077V5.27889V5.287V5.29512V5.30324V5.31135V5.31946ZM12.2604 6.07536L13.0171 5.71436C13.3635 5.54909 13.5841 5.19941 13.5841 4.81557V3.86553C13.5841 3.31554 13.1382 2.86968 12.5882 2.86968H12.3193V2.87172V2.87954V2.88737V2.8952V2.90303V2.91087V2.91872V2.92656V2.93441V2.94226V2.95012V2.95797V2.96584V2.97371V2.98158V2.98945V2.99733V3.00521V3.01309V3.02098V3.02887V3.03676V3.04466V3.05256V3.06046V3.06837V3.07628V3.0842V3.09211V3.10004V3.10796V3.11588V3.12381V3.13174V3.13968V3.14762V3.15556V3.16351V3.17146V3.1794V3.18736V3.19531V3.20328V3.21124V3.21921V3.22717V3.23515V3.24312V3.2511V3.25908V3.26706V3.27505V3.28304V3.29103V3.29903V3.30702V3.31502V3.32302V3.33103V3.33904V3.34705V3.35506V3.36308V3.37109V3.37911V3.38714V3.39517V3.40319V3.41123V3.41926V3.42729V3.43534V3.44338V3.45142V3.45946V3.46751V3.47556V3.48362V3.49167V3.49972V3.50778V3.51585V3.52391V3.53197V3.54005V3.54811V3.55619V3.56427V3.57234V3.58042V3.5885V3.59658V3.60467V3.61276V3.62085V3.62894V3.63703V3.64513V3.65322V3.66132V3.66942V3.67753V3.68563V3.69374V3.70185V3.70996V3.71807V3.72619V3.7343V3.74242V3.75054V3.75866V3.76678V3.77491V3.78303V3.79116V3.79929V3.80742V3.81555V3.82369V3.83182V3.83996V3.8481V3.85624V3.86438V3.87252V3.88067V3.88882V3.89696V3.90511V3.91326V3.92141V3.92956V3.93772V3.94587V3.95403V3.96219V3.97034V3.97851V3.98667V3.99483V4.003V4.01116V4.01933V4.0275V4.03566V4.04383V4.052V4.06017V4.06834V4.07652V4.08469V4.09286V4.10104V4.10922V4.1174V4.12557V4.13376V4.14194V4.15012V4.1583V4.16648V4.17467V4.18285V4.19104V4.19922V4.20741V4.2156V4.22378V4.23197V4.24016V4.24836V4.25655V4.26474V4.27293V4.28112V4.28932V4.29751V4.3057V4.31389V4.32208V4.33028V4.33848V4.34668V4.35487V4.36306V4.37126V4.37946V4.38766V4.39586V4.40406V4.41225V4.42045V4.42865V4.43685V4.44505V4.45325V4.46144V4.46965V4.47784V4.48604V4.49425V4.50244V4.51065V4.51884V4.52704V4.53524V4.54344V4.55164V4.55984V4.56804V4.57624V4.58444V4.59264V4.60084V4.60903V4.61724V4.62543V4.63363V4.64183V4.65002V4.65822V4.66642V4.67462V4.68281V4.691V4.6992V4.70739V4.71559V4.72378V4.73198V4.74017V4.74836V4.75656V4.76475V4.77294V4.78113V4.78931V4.7975V4.80569V4.81388V4.82207V4.83025V4.83844V4.84662V4.8548V4.86299V4.87117V4.87936V4.88753V4.89572V4.9039V4.91207V4.92025V4.92843V4.9366V4.94478V4.95295V4.96112V4.9693V4.97746V4.98563V4.9938V5.00197V5.01014V5.0183V5.02647V5.03463V5.04279V5.05095V5.05911V5.06726V5.07542V5.08358V5.09173V5.09989V5.10804V5.11619V5.12434V5.13249V5.14063V5.14878V5.15692V5.16506V5.17321V5.18134V5.18948V5.19761V5.20575V5.21388V5.22202V5.23014V5.23827V5.2464V5.25452V5.26264V5.27077V5.27889V5.287V5.29512V5.30324V5.31135V5.31946C12.3193 5.57664 12.2992 5.8291 12.2604 6.07536ZM2.68068 5.31932C2.68068 5.57654 2.70084 5.82906 2.73965 6.07538L1.98293 5.71436C1.6365 5.54909 1.41589 5.19941 1.41589 4.81557V3.86553C1.41589 3.31554 1.86174 2.86968 2.41173 2.86968H2.68068V5.31932ZM5.20641 12.5185C5.37879 12.3892 5.58844 12.3193 5.80392 12.3193H7.50003H9.19613C9.41156 12.3193 9.62123 12.3892 9.79361 12.5185L10.569 13.1C10.7757 13.2551 10.6661 13.5841 10.4076 13.5841H4.59243C4.33396 13.5841 4.22429 13.2551 4.43106 13.1L5.20641 12.5185Z" fill="#222222"/>
<path d="M7.32437 2.58946C7.41369 2.47018 7.58631 2.47018 7.67563 2.58946L8.30096 3.42485C8.32661 3.45914 8.36095 3.48525 8.40009 3.50018L9.35326 3.86382C9.48941 3.91574 9.54282 4.08743 9.46187 4.21308L8.89519 5.09302C8.87188 5.12915 8.85872 5.17137 8.85727 5.21491L8.82103 6.27504C8.8159 6.42641 8.67618 6.53252 8.53691 6.49089L7.56133 6.19934C7.52119 6.18736 7.47881 6.18736 7.43867 6.19934L6.46309 6.49089C6.32382 6.53252 6.1841 6.42641 6.17897 6.27504L6.14273 5.21491C6.14128 5.17137 6.12812 5.12915 6.10481 5.09302L5.53813 4.21308C5.45718 4.08743 5.51059 3.91574 5.64674 3.86382L6.59991 3.50018C6.63905 3.48525 6.67339 3.45914 6.69904 3.42485L7.32437 2.58946Z" fill="#222222"/>
</svg>
