<svg width="17" height="16" viewBox="0 0 17 16" fill="none" xmlns="http://www.w3.org/2000/svg">
<mask id="mask0_1_1625" style="mask-type:luminance" maskUnits="userSpaceOnUse" x="0" y="0" width="17" height="16">
<path d="M16.2255 0.140625H0.751953V15.8856H16.2255V0.140625Z" fill="white"/>
</mask>
<g mask="url(#mask0_1_1625)">
<path d="M8.48821 10.6373C8.35602 10.6373 8.22968 10.5822 8.13812 10.4851L4.75326 6.87685C4.45991 6.56392 4.67977 6.04499 5.10336 6.04499H6.87638V5.22495C6.87638 2.42168 9.11809 0.140625 11.873 0.140625C12.14 0.140625 12.3566 0.361054 12.3566 0.632656C12.3566 0.904257 12.14 1.12469 11.873 1.12469C10.895 1.12469 10.1 1.93359 10.1 2.92881V6.04499H11.873C12.2966 6.04499 12.5165 6.56392 12.2231 6.87685L8.83828 10.4851C8.74672 10.5822 8.62038 10.6373 8.48821 10.6373Z" fill="#222222"/>
<path d="M14.2913 11.9497H2.68614C1.61976 11.9497 0.751953 12.8327 0.751953 13.9178C0.751953 15.0029 1.61976 15.886 2.68614 15.886H14.2913C15.3577 15.886 16.2255 15.0029 16.2255 13.9178C16.2255 12.8327 15.3577 11.9497 14.2913 11.9497ZM14.2913 14.9019H7.844V12.9338H14.2913C14.8245 12.9338 15.2584 13.3753 15.2584 13.9178C15.2584 14.4604 14.8245 14.9019 14.2913 14.9019Z" fill="#222222"/>
</g>
</svg>
