<svg width="13" height="15" viewBox="0 0 13 15" fill="none" xmlns="http://www.w3.org/2000/svg">
<path d="M6.50003 13.5668C4.05563 13.5668 2.06707 11.4735 2.06707 8.90039H1.13379C1.13379 11.988 3.54105 14.5001 6.50003 14.5001C9.45914 14.5001 11.8665 11.988 11.8665 8.90039H10.9332C10.9332 11.4735 8.94455 13.5668 6.50003 13.5668Z" fill="#222222"/>
<path d="M0.666835 8.90037H12.3328C12.4566 8.90036 12.5753 8.8512 12.6628 8.76369C12.7503 8.67618 12.7995 8.55749 12.7995 8.43373V7.08985C12.7994 7.02589 12.7863 6.96261 12.7608 6.90394C12.7353 6.84527 12.6981 6.79245 12.6514 6.74876L12.2788 6.40084C12.2524 5.41066 11.9507 4.44742 11.4075 3.61909C10.8644 2.79077 10.1012 2.13012 9.20364 1.7112V1.49131C9.19091 1.217 9.07014 0.95886 8.86772 0.773282C8.6653 0.587705 8.39767 0.489764 8.12328 0.500848H4.87663C4.60206 0.489831 4.33428 0.587904 4.13177 0.773651C3.92927 0.959397 3.80848 1.21773 3.7958 1.49222V1.71348C2.89887 2.13254 2.13624 2.79289 1.59322 3.62067C1.0502 4.44844 0.748218 5.41098 0.721059 6.4006L0.348307 6.74876C0.301591 6.79245 0.264342 6.84527 0.238865 6.90394C0.213388 6.96261 0.200227 7.02589 0.200195 7.08985V8.43373C0.200201 8.55749 0.249366 8.67618 0.336877 8.76369C0.424388 8.8512 0.543076 8.90036 0.666835 8.90037ZM6.49984 4.23397C6.59213 4.23397 6.68235 4.26134 6.75909 4.31261C6.83583 4.36389 6.89564 4.43677 6.93095 4.52203C6.96627 4.6073 6.97552 4.70113 6.95751 4.79165C6.9395 4.88217 6.89506 4.96531 6.8298 5.03057C6.76454 5.09583 6.68139 5.14028 6.59087 5.15828C6.50035 5.17629 6.40653 5.16705 6.32126 5.13173C6.23599 5.09641 6.16311 5.0366 6.11184 4.95986C6.06056 4.88312 6.0332 4.7929 6.0332 4.70061C6.03334 4.57689 6.08255 4.45828 6.17003 4.3708C6.25751 4.28332 6.37612 4.23411 6.49984 4.23397ZM1.13348 7.29242L1.50487 6.94564C1.55511 6.89868 1.59436 6.8412 1.6198 6.77731C1.64525 6.71342 1.65627 6.6447 1.65208 6.57606C1.64455 5.68652 1.90715 4.81564 2.40515 4.07854C2.90316 3.34144 3.61313 2.77281 4.44121 2.44783C4.52642 2.41247 4.59924 2.35264 4.65047 2.27592C4.70171 2.19919 4.72906 2.10901 4.72908 2.01675L4.72852 1.49586C4.74634 1.47432 4.76914 1.45745 4.79494 1.44669C4.82075 1.43593 4.84878 1.43162 4.87663 1.43413H6.0332V3.38226C5.72185 3.49234 5.45944 3.70894 5.29234 3.99378C5.12525 4.27862 5.06423 4.61337 5.12008 4.93884C5.17592 5.26432 5.34503 5.55958 5.59751 5.77244C5.85 5.98529 6.1696 6.10204 6.49984 6.10204C6.83007 6.10204 7.14967 5.98529 7.40216 5.77244C7.65464 5.55958 7.82375 5.26432 7.8796 4.93884C7.93544 4.61337 7.87442 4.27862 7.70733 3.99378C7.54024 3.70894 7.27783 3.49234 6.96648 3.38226V1.43413H8.12328C8.15052 1.43193 8.17791 1.43593 8.20338 1.44584C8.22886 1.45574 8.25176 1.47129 8.27036 1.49131V2.0147C8.27037 2.10698 8.29774 2.19718 8.349 2.27391C8.40027 2.35064 8.47313 2.41045 8.55837 2.44578C9.39056 2.76529 10.1045 3.33284 10.6034 4.07158C11.1023 4.81031 11.3621 5.68452 11.3476 6.57583C11.3433 6.64451 11.3543 6.71328 11.3798 6.77721C11.4052 6.84115 11.4445 6.89866 11.4948 6.94564L11.8662 7.29242V7.96709H1.13348V7.29242Z" fill="#222222"/>
</svg>
