<svg width="19" height="16" viewBox="0 0 19 16" fill="none" xmlns="http://www.w3.org/2000/svg">
<path d="M13.4375 0C16.0954 0 18.25 2.08333 18.25 5C18.25 10.8333 11.6875 14.1667 9.5 15.4167C7.3125 14.1667 0.75 10.8333 0.75 5C0.75 2.08333 2.9375 0 5.5625 0C7.18997 0 8.625 0.833333 9.5 1.66667C10.375 0.833333 11.81 0 13.4375 0ZM10.3172 13.0032C11.0886 12.5404 11.7838 12.0796 12.4355 11.5858C15.042 9.61083 16.5 7.45292 16.5 5C16.5 3.03397 15.1551 1.66667 13.4375 1.66667C12.4961 1.66667 11.4769 2.14092 10.7374 2.84518L9.5 4.02369L8.26258 2.84518C7.5231 2.14092 6.50391 1.66667 5.5625 1.66667C3.86418 1.66667 2.5 3.04708 2.5 5C2.5 7.45292 3.95799 9.61083 6.5645 11.5858C7.21625 12.0796 7.91144 12.5404 8.68284 13.0032C8.94403 13.1599 9.20346 13.3108 9.5 13.4793C9.79654 13.3108 10.056 13.1599 10.3172 13.0032Z" fill="currentColor"/>
</svg>
