<svg width="7" height="15" viewBox="0 0 7 15" fill="none" xmlns="http://www.w3.org/2000/svg">
<path d="M6.5 3.71582C6.5 3.71108 6.5 3.70539 6.5 3.6997C6.5 1.93252 5.15689 0.5 3.5 0.5C1.84311 0.5 0.5 1.93252 0.5 3.6997C0.5 5.34174 1.65956 6.69462 3.15289 6.87807L3.16667 6.87949V14.1445C3.16667 14.3407 3.316 14.5 3.5 14.5C3.684 14.5 3.83333 14.3407 3.83333 14.1445V6.87949C5.33689 6.69842 6.49511 5.35217 6.5 3.71629V3.71582ZM3.5 6.20448C2.21156 6.20448 1.16667 5.09003 1.16667 3.71582C1.16667 2.34161 2.21156 1.22716 3.5 1.22716C4.78844 1.22716 5.83333 2.34161 5.83333 3.71582C5.83156 5.08956 4.788 6.20258 3.5 6.20448Z" fill="#222222" stroke="#222222" stroke-width="0.4"/>
</svg>
