<svg width="16" height="14" viewBox="0 0 16 14" fill="none" xmlns="http://www.w3.org/2000/svg">
<circle cx="11.5" cy="9.5" r="4" stroke="#084FFF"/>
<path d="M14 4.66667V1.4H13.0667V4.66667H14ZM12.6 0H1.4V0.933333H12.6V0ZM0 1.4V12.6H0.933333V1.4H0ZM1.4 14H7.46667V13.0667H1.4V14ZM0 12.6C0 13.3732 0.626801 14 1.4 14V13.0667C1.14227 13.0667 0.933333 12.8577 0.933333 12.6H0ZM1.4 0C0.626802 0 0 0.626801 0 1.4H0.933333C0.933333 1.14227 1.14227 0.933333 1.4 0.933333V0ZM14 1.4C14 0.626801 13.3732 0 12.6 0V0.933333C12.8577 0.933333 13.0667 1.14227 13.0667 1.4H14ZM2.8 4.66667H7.46667V3.73333H2.8V4.66667ZM2.8 7.46667H5.6V6.53333H2.8V7.46667Z" fill="#084FFF"/>
<path d="M10 9.5L11 10.5L13 8.5" stroke="#084FFF" stroke-linecap="round" stroke-linejoin="round"/>
</svg>
