<svg width="15" height="14" viewBox="0 0 15 14" fill="none" xmlns="http://www.w3.org/2000/svg">
<path d="M7.50009 7.81396C7.7698 7.81396 7.98846 8.03263 7.98846 8.30234V10.907C7.98846 11.1767 7.7698 11.3954 7.50009 11.3954C7.23038 11.3954 7.01172 11.1767 7.01172 10.907V8.30234C7.01172 8.03263 7.23038 7.81396 7.50009 7.81396Z" fill="#084FFF"/>
<path fill-rule="evenodd" clip-rule="evenodd" d="M3.10465 5.24366V4.39535C3.10465 1.96787 5.07252 0 7.5 0C9.92747 0 11.8953 1.96787 11.8953 4.39535V5.24366C12.043 5.25405 12.1823 5.26757 12.3133 5.28518C12.8994 5.36398 13.3928 5.53256 13.7848 5.92447C14.1768 6.31647 14.3453 6.80993 14.4241 7.39604C14.5 7.9606 14.5 8.67837 14.5 9.5689V9.6404C14.5 10.5309 14.5 11.2487 14.4241 11.8133C14.3453 12.3994 14.1768 12.8928 13.7848 13.2848C13.3928 13.6768 12.8994 13.8453 12.3133 13.9241C11.7487 14 11.0309 14 10.1404 14H4.85962C3.9691 14 3.25131 14 2.68677 13.9241C2.10065 13.8453 1.60715 13.6768 1.21521 13.2848C0.823257 12.8928 0.654678 12.3994 0.575874 11.8133C0.499974 11.2487 0.499987 10.5309 0.5 9.6404V9.5689C0.499987 8.67837 0.499974 7.9606 0.575874 7.39604C0.654678 6.80993 0.823257 6.31647 1.21521 5.92447C1.60715 5.53256 2.10065 5.36398 2.68677 5.28518C2.81774 5.26757 2.95695 5.25405 3.10465 5.24366ZM4.0814 4.39535C4.0814 2.50731 5.61196 0.976744 7.5 0.976744C9.38805 0.976744 10.9186 2.50731 10.9186 4.39535V5.21154C10.6754 5.2093 10.4162 5.2093 10.1404 5.2093H4.85962C4.58384 5.2093 4.32462 5.2093 4.0814 5.21154V4.39535ZM2.81692 6.25318C2.33911 6.31745 2.08608 6.43492 1.90587 6.61516C1.72565 6.7954 1.60815 7.04838 1.54391 7.5262C1.47778 8.01809 1.47674 8.66997 1.47674 9.60465C1.47674 10.5393 1.47778 11.1912 1.54391 11.6831C1.60815 12.1609 1.72565 12.4139 1.90587 12.5941C2.08608 12.7744 2.33911 12.8919 2.81692 12.9561C3.30877 13.0222 3.96066 13.0233 4.89535 13.0233H10.1047C11.0393 13.0233 11.6912 13.0222 12.1831 12.9561C12.6609 12.8919 12.9139 12.7744 13.0941 12.5941C13.2744 12.4139 13.3919 12.1609 13.4561 11.6831C13.5222 11.1912 13.5233 10.5393 13.5233 9.60465C13.5233 8.66997 13.5222 8.01809 13.4561 7.5262C13.3919 7.04838 13.2744 6.7954 13.0941 6.61516C12.9139 6.43492 12.6609 6.31745 12.1831 6.25318C11.6912 6.18709 11.0393 6.18605 10.1047 6.18605H4.89535C3.96066 6.18605 3.30877 6.18709 2.81692 6.25318Z" fill="#084FFF"/>
</svg>
