<svg width="13" height="16" viewBox="0 0 13 16" fill="none" xmlns="http://www.w3.org/2000/svg">
<path d="M12.1981 8.69902C12.1981 12.1984 9.74853 13.9481 6.83702 14.963C6.68456 15.0146 6.51895 15.0122 6.3681 14.956C3.44959 13.9481 1 12.1984 1 8.69902V3.79985C1 3.61423 1.07374 3.43621 1.20499 3.30495C1.33624 3.1737 1.51426 3.09996 1.69988 3.09996C3.09965 3.09996 4.84935 2.2601 6.06715 1.19628C6.21542 1.0696 6.40404 1 6.59906 1C6.79408 1 6.9827 1.0696 7.13097 1.19628C8.35577 2.2671 10.0985 3.09996 11.4982 3.09996C11.6839 3.09996 11.8619 3.1737 11.9931 3.30495C12.1244 3.43621 12.1981 3.61423 12.1981 3.79985V8.69902Z" stroke="#084FFF" stroke-linecap="round" stroke-linejoin="round"/>
<path d="M4.5 7.99937L5.89977 9.39914L8.6993 6.59961" stroke="#084FFF" stroke-linecap="round" stroke-linejoin="round"/>
</svg>
