<svg width="14" height="15" viewBox="0 0 14 15" fill="none" xmlns="http://www.w3.org/2000/svg">
<path opacity="0.5" d="M9.83486 6.09484C9.8348 3.75314 7.93656 1.85483 5.59484 1.85483C3.25317 1.85488 1.35488 3.75317 1.35483 6.09484C1.35483 8.43656 3.25314 10.3348 5.59484 10.3349C7.93659 10.3349 9.83486 8.43659 9.83486 6.09484ZM11.1897 6.09484C11.1897 7.39566 10.7444 8.59168 9.9998 9.54189L13.8014 13.3435L13.8482 13.3947C14.0652 13.6608 14.0495 14.0534 13.8014 14.3014C13.5534 14.5495 13.1608 14.5652 12.8947 14.3482L12.8435 14.3014L9.04189 10.4998C8.09168 11.2444 6.89566 11.6897 5.59484 11.6897C2.50489 11.6896 0 9.18481 0 6.09484C5.30117e-05 3.00492 2.50492 0.500053 5.59484 0.5C8.68481 0.5 11.1896 3.00489 11.1897 6.09484Z" fill="currentColor"/>
</svg>
