<svg width="13" height="20" viewBox="0 0 13 20" fill="none" xmlns="http://www.w3.org/2000/svg">
<g clip-path="url(#clip0_1_3974)">
<path d="M2.81841 4.51817V0.0761719H1.58852V4.51817C1.1308 4.64843 0.728737 4.92002 0.442666 5.29217C0.156595 5.66433 0.00195313 6.11698 0.00195312 6.58217C0.00195313 7.04737 0.156595 7.50002 0.442666 7.87217C0.728737 8.24433 1.1308 8.51592 1.58852 8.64617V19.9242H2.81841V8.64617C3.27613 8.51592 3.6782 8.24433 3.96427 7.87217C4.25034 7.50002 4.40498 7.04737 4.40498 6.58217C4.40498 6.11698 4.25034 5.66433 3.96427 5.29217C3.6782 4.92002 3.27613 4.64843 2.81841 4.51817Z" fill="#1D1D1B"/>
<path d="M12.9998 13.4182C12.9997 12.9527 12.8447 12.4999 12.5583 12.1277C12.2718 11.7555 11.8693 11.4841 11.4112 11.3542V0.0761719H10.1813V11.3542C9.72358 11.4844 9.32151 11.756 9.03544 12.1282C8.74937 12.5003 8.59473 12.953 8.59473 13.4182C8.59473 13.8834 8.74937 14.336 9.03544 14.7082C9.32151 15.0803 9.72358 15.3519 10.1813 15.4822V19.9242H11.4112V15.4822C11.8693 15.3523 12.2718 15.0808 12.5583 14.7087C12.8447 14.3365 12.9997 13.8836 12.9998 13.4182Z" fill="#1D1D1B"/>
</g>
<defs>
<clipPath id="clip0_1_3974">
<rect width="13" height="20" fill="white"/>
</clipPath>
</defs>
</svg>
