<svg width="15" height="13" viewBox="0 0 15 13" fill="none" xmlns="http://www.w3.org/2000/svg">
<path d="M1.1104 5.35743C5.04593 3.64281 7.67026 2.51241 8.98328 1.96625C12.7324 0.406873 13.5114 0.135996 14.0192 0.127048C14.1308 0.125083 14.3806 0.152758 14.5423 0.284008C14.6789 0.394828 14.7164 0.544536 14.7344 0.649603C14.7524 0.754678 14.7748 0.994033 14.757 1.18105C14.5538 3.31573 13.6748 8.49603 13.2275 10.8869C13.0383 11.8986 12.6657 12.2377 12.305 12.2709C11.521 12.3431 10.9256 11.7528 10.1663 11.2551C8.97818 10.4763 8.30693 9.99138 7.15358 9.23133C5.82072 8.353 6.68476 7.87023 7.44436 7.0813C7.64318 6.87483 11.0974 3.73298 11.1642 3.44797C11.1725 3.41232 11.1803 3.27945 11.1014 3.20929C11.0225 3.13912 10.906 3.16312 10.8219 3.1822C10.7027 3.20925 8.80456 4.4638 5.12749 6.946C4.58872 7.3159 4.10071 7.4962 3.66348 7.48675C3.18145 7.47633 2.25424 7.2142 1.56496 6.99018C0.719518 6.7153 0.0475796 6.57003 0.106091 6.1033C0.136566 5.86023 0.471336 5.6116 1.1104 5.35743Z" fill="currentColor"/>
</svg>
