<svg width="17" height="17" viewBox="0 0 17 17" fill="none" xmlns="http://www.w3.org/2000/svg">
<g clip-path="url(#clip0_1_32)">
<path d="M8.53418 0.777832C10.5934 0.777832 12.5228 1.57613 13.9746 3.021C15.4263 4.46581 16.2245 6.38952 16.2246 8.43506C16.2246 12.6556 12.771 16.0894 8.53418 16.0894H8.53027C7.24294 16.0893 5.97856 15.766 4.85547 15.1577L0.779297 16.2222L1.87207 12.2563C1.19585 11.0967 0.839844 9.77716 0.839844 8.43115C0.843851 4.21087 4.29374 0.777981 8.53418 0.777832ZM5.71484 4.76611C5.58112 4.76614 5.36693 4.81552 5.18359 5.01318C5.00012 5.21098 4.48828 5.69049 4.48828 6.66748C4.4884 7.64067 5.20328 8.58307 5.30273 8.71631C5.40206 8.84938 6.68125 10.9147 8.70215 11.7095C10.3824 12.3708 10.7271 12.2379 11.0898 12.2036C11.4528 12.1694 12.2674 11.7241 12.4355 11.2603C12.5995 10.7972 12.5992 10.4023 12.5498 10.3179C12.5002 10.2343 12.3665 10.1842 12.168 10.0854C11.9693 9.98659 10.991 9.50741 10.8076 9.43896C10.6243 9.37435 10.4902 9.34004 10.3604 9.5376C10.2266 9.73532 9.84508 10.1809 9.73047 10.314C9.6159 10.4469 9.49737 10.4616 9.29883 10.3628C9.1002 10.2639 8.45836 10.055 7.69824 9.37842C7.10607 8.8537 6.70446 8.20309 6.58984 8.00537C6.47549 7.80791 6.5785 7.7018 6.67773 7.60303C6.7656 7.51557 6.87625 7.37042 6.97559 7.25635C7.07481 7.14238 7.10994 7.0592 7.1748 6.92627C7.23975 6.79319 7.20885 6.67845 7.15918 6.57959C7.10926 6.48387 6.71962 5.5033 6.54395 5.11182C6.39498 4.78127 6.238 4.77382 6.09668 4.77002C5.98214 4.76623 5.84844 4.76611 5.71484 4.76611Z" fill="currentColor"/>
</g>
<defs>
<clipPath id="clip0_1_32">
<rect width="16" height="16" fill="white" transform="translate(0.5 0.5)"/>
</clipPath>
</defs>
</svg>
